<?xml version="1.0" encoding="UTF-8"?>
<svg width="64px" height="63px" viewBox="0 0 64 63" version="1.1" xmlns="http://www.w3.org/2000/svg" xmlns:xlink="http://www.w3.org/1999/xlink">
    <!-- Generator: Sketch 42 (36781) - http://www.bohemiancoding.com/sketch -->
    <title>Group Copy 3</title>
    <desc>Created with Sketch.</desc>
    <defs></defs>
    <g id="Page-1" stroke="none" stroke-width="1" fill="none" fill-rule="evenodd">
        <g id="Group-2" transform="translate(0.000000, -12.000000)" fill="#24CAE8">
            <g id="Group-Copy-3" transform="translate(0.000000, 12.000000)">
                <ellipse id="Oval-Copy-3" cx="32.0394575" cy="31.4208543" rx="13.1787916" ry="13.2173367"></ellipse>
                <path d="M25.4453607,0.692215963 L28.578992,8.41085677 L35.2301942,8.42708783 L38.1297781,0.692215963 C38.1297781,0.692215963 35.0307458,0.0555598387 31.8367268,0.0555598387 C28.6427078,0.0555598387 25.4453607,0.692215963 25.4453607,0.692215963 Z" id="Path-2-Copy-29"></path>
                <path d="M25.4453607,55.223623 L28.578992,62.9422638 L35.2301942,62.9584949 L38.1297781,55.223623 C38.1297781,55.223623 35.0307458,54.5869669 31.8367268,54.5869669 C28.6427078,54.5869669 25.4453607,55.223623 25.4453607,55.223623 Z" id="Path-2-Copy-30" transform="translate(31.787569, 58.772731) scale(1, -1) translate(-31.787569, -58.772731) "></path>
                <path d="M10.1042694,50.1320175 L13.2379007,57.8506583 L19.889103,57.8668894 L22.7886868,50.1320175 C22.7886868,50.1320175 19.6896546,49.4953614 16.4956356,49.4953614 C13.3016165,49.4953614 10.1042694,50.1320175 10.1042694,50.1320175 Z" id="Path-2-Copy-31" transform="translate(16.446478, 53.681125) scale(1, -1) rotate(-35.000000) translate(-16.446478, -53.681125) "></path>
                <path d="M-0.224645499,36.6835815 L2.90898582,44.4022223 L9.56018804,44.4184534 L12.4597719,36.6835815 C12.4597719,36.6835815 9.36073967,36.0469254 6.16672064,36.0469254 C2.97270161,36.0469254 -0.224645499,36.6835815 -0.224645499,36.6835815 Z" id="Path-2-Copy-32" transform="translate(6.117563, 40.232689) scale(1, -1) rotate(-70.000000) translate(-6.117563, -40.232689) "></path>
                <path d="M-0.279053637,19.0221812 L2.85457768,26.740822 L9.5057799,26.7570531 L12.4053637,19.0221812 C12.4053637,19.0221812 9.30633154,18.3855251 6.1123125,18.3855251 C2.91829347,18.3855251 -0.279053637,19.0221812 -0.279053637,19.0221812 Z" id="Path-2-Copy-33" transform="translate(6.063155, 22.571289) scale(1, -1) rotate(-109.000000) translate(-6.063155, -22.571289) "></path>
                <path d="M9.89064427,5.57730057 L13.0242756,13.2959414 L19.6754778,13.3121724 L22.5750617,5.57730057 C22.5750617,5.57730057 19.4760294,4.94064444 16.2820104,4.94064444 C13.0879914,4.94064444 9.89064427,5.57730057 9.89064427,5.57730057 Z" id="Path-2-Copy-34" transform="translate(16.232853, 9.126408) scale(1, -1) rotate(-143.000000) translate(-16.232853, -9.126408) "></path>
                <path d="M41.3501079,5.75305973 L44.4837392,13.4717005 L51.1349414,13.4879316 L54.0345253,5.75305973 C54.0345253,5.75305973 50.9354931,5.11640361 47.741474,5.11640361 C44.547455,5.11640361 41.3501079,5.75305973 41.3501079,5.75305973 Z" id="Path-2-Copy-35" transform="translate(47.692317, 9.302168) scale(1, -1) rotate(-214.000000) translate(-47.692317, -9.302168) "></path>
                <path d="M51.3647467,19.0572936 L54.4983781,26.7759344 L61.1495803,26.7921655 L64.0491641,19.0572936 C64.0491641,19.0572936 60.9501319,18.4206375 57.7561129,18.4206375 C54.5620938,18.4206375 51.3647467,19.0572936 51.3647467,19.0572936 Z" id="Path-2-Copy-36" transform="translate(57.706955, 22.606401) scale(1, -1) rotate(-249.000000) translate(-57.706955, -22.606401) "></path>
                <path d="M51.5315162,36.7395623 L54.6651475,44.4582032 L61.3163497,44.4744342 L64.2159335,36.7395623 C64.2159335,36.7395623 61.1169013,36.1029062 57.9228823,36.1029062 C54.7288633,36.1029062 51.5315162,36.7395623 51.5315162,36.7395623 Z" id="Path-2-Copy-37" transform="translate(57.873725, 40.288670) scale(1, -1) rotate(-290.000000) translate(-57.873725, -40.288670) "></path>
                <path d="M41.4741795,50.2778102 L44.6078108,57.996451 L51.2590131,58.0126821 L54.1585969,50.2778102 C54.1585969,50.2778102 51.0595647,49.6411541 47.8655457,49.6411541 C44.6715266,49.6411541 41.4741795,50.2778102 41.4741795,50.2778102 Z" id="Path-2-Copy-38" transform="translate(47.816388, 53.826918) scale(1, -1) rotate(-323.000000) translate(-47.816388, -53.826918) "></path>
            </g>
        </g>
    </g>
</svg>